<svg xmlns="http://www.w3.org/2000/svg" xmlns:xlink="http://www.w3.org/1999/xlink" class="svg-graphic  svg-graphic--logo-site" viewBox="0 0 183.691 68.913">

<g data-id="Group_1" data-name="Group 1">
  <path data-id="Path_1" data-name="Path 1" d="M66.055,185.638c6.231,0,10.883,3.794,10.883,9.84,0,7.671-6.676,12.8-13.634,12.8-6.15,0-10.843-3.794-10.843-9.8,0-7.713,6.595-12.841,13.594-12.841M63.91,201.106c2.144,0,4.491-1.751,4.491-5.086,0-2.127-1.254-3.211-2.873-3.211A4.967,4.967,0,0,0,61,198.062a2.75,2.75,0,0,0,2.913,3.044" transform="translate(-39.397 -139.411)" class="lotto-logo-part lotto-logo-fill-blue"></path>
  <path data-id="Path_2" data-name="Path 2" d="M294.1,185.638c6.231,0,10.883,3.794,10.883,9.84,0,7.671-6.676,12.8-13.634,12.8-6.149,0-10.842-3.794-10.842-9.8,0-7.713,6.594-12.841,13.593-12.841m-2.144,15.468c2.144,0,4.491-1.751,4.491-5.086,0-2.127-1.254-3.211-2.873-3.211a4.967,4.967,0,0,0-4.531,5.253,2.751,2.751,0,0,0,2.913,3.044" transform="translate(-210.658 -139.411)" class="lotto-logo-part  lotto-logo-fill-blue"></path>
  <path data-id="Path_3" data-name="Path 3" d="M556.058,185.638c3.8,0,9.953,1.337,8.981,6.309l-.607,3.3h-7.12l.243-1.044c.162-.71-.364-1.379-2.023-1.379a4.845,4.845,0,0,0-4.693,5.014c0,1.462.607,3.342,3.843,3.342a9.9,9.9,0,0,0,4.572-1.17,12.16,12.16,0,0,0,1.9-1.128l2.064,6.309a13.349,13.349,0,0,1-2.387,1.546,15.661,15.661,0,0,1-7.04,1.587c-7.768,0-11.49-4.679-11.49-9.818a13.284,13.284,0,0,1,13.756-12.868" transform="translate(-407.261 -139.411)" class="lotto-logo-part lotto-logo-fill-blue"></path>
  <path data-id="Path_4" data-name="Path 4" d="M655.211,184.2c-3.027.771-6.17-1.2-5.578-5.36.417-2.924,1.214-6.673,1.214-7.983,0-.465-.162-1.225-1.456-1.225-2.387,0-3.884,2.577-4.41,5.448l-1.7,9.3h-8.456l4.133-22.687h-2.554l1.5-7.941h11.045l-1.861,9.672a10.219,10.219,0,0,1-.324,1.309l-.2.507h.081a9.257,9.257,0,0,1,1.821-1.774,8.228,8.228,0,0,1,5.057-1.774,5.794,5.794,0,0,1,6.109,6.209c0,2.788-1.336,7.012-1.336,8.574a1.245,1.245,0,0,0,1.416,1.394c.162,0,.324-.042.486-.042,0,0,.248-.063.243,0a7.349,7.349,0,0,1-5.225,6.374" transform="translate(-476.745 -115.463)" class="lotto-logo-part lotto-logo-fill-blue"></path>
  <path data-id="Path_5" data-name="Path 5" d="M.023,178.837c-.311,4.189,2.551,6.131,5.577,5.36a7.35,7.35,0,0,0,5.225-6.374c0-.063-.243,0-.243,0-.162,0-.324.042-.486.042a1.244,1.244,0,0,1-1.416-1.394,27.524,27.524,0,0,1,.7-3.963h0l0-.014c.177-.853.349-1.742.47-2.6l2.925-16.151H1.81l-1.5,7.941h2.55L1.019,171.6c-.2,1.141-.948,5.492-.948,6.687Z" transform="translate(0 -115.463)" class="lotto-logo-part lotto-logo-fill-blue"></path>
  <path data-id="Path_6" data-name="Path 6" d="M176.913,168.448h4.167l1.133-6.758h-4.167l1.645-7.941H171.64l-1.547,7.941h-7.432l1.59-7.941H156.2l-1.494,7.941h-5.49a10.169,10.169,0,0,1,3.923,6.835l-1.32,6.85a9.533,9.533,0,0,0-.243,2.027c0,4.393,3.763,6.927,9.265,6.927.445,0,.971,0,1.416-.042l.728-.084,1.295-6.927c-.157.028-.3.046-.437.059-.1.012-.2.019-.314.022-.169.007-.275,0-.275,0h-.067c-1.578,0-2.913-.338-2.913-1.563a5.849,5.849,0,0,1,.162-1.352l1.092-6h7.009l-1.335,6.927a9.53,9.53,0,0,0-.243,2.027c0,4.393,3.763,6.927,9.265,6.927.445,0,.971,0,1.416-.042l.728-.084,1.295-6.927h0c-.155.028-.3.046-.432.059a3.166,3.166,0,0,1-.322.022c-.167.007-.271,0-.271,0h-.065c-1.578,0-2.912-.338-2.912-1.563a5.834,5.834,0,0,1,.162-1.352Z" transform="translate(-112.059 -115.463)" class="lotto-logo-part lotto-logo-fill-blue"></path>
  <path data-id="Path_7" data-name="Path 7" d="M407,161.692l0,0h-16.24l1.59-7.941h-8.051l-1.495,7.941h-5.489a10.168,10.168,0,0,1,3.923,6.834l-1.32,6.85a9.531,9.531,0,0,0-.243,2.027c0,4.393,3.763,6.927,9.265,6.927.445,0,.971,0,1.416-.042l.728-.085,1.295-6.927c-.158.028-.305.046-.439.059-.094.012-.2.018-.308.021-.171.007-.277,0-.277,0h-.068c-1.578,0-2.913-.338-2.913-1.563a5.847,5.847,0,0,1,.162-1.351l1.092-6h6.326a12.827,12.827,0,0,0-1.313,5.692c0,5.64,3.439,10.236,10.681,10.236a16.045,16.045,0,0,0,6.675-1.42,15.512,15.512,0,0,0,2.468-1.379l-2.1-6.392a14.376,14.376,0,0,1-1.942,1,10.987,10.987,0,0,1-4.167,1.044c-1.821,0-3.236-.752-3.2-2.883H415.32a8.357,8.357,0,0,0,.4-1.211,12.148,12.148,0,0,0,.4-2.967c0-4.788-3.3-8.454-9.125-8.479m.912,8.479a1.469,1.469,0,0,0-.04.418H403.83c.324-1.462,1.173-3.05,2.63-3.05,1.254,0,1.5,1.045,1.5,1.838a5.814,5.814,0,0,1-.04.794" transform="translate(-283.363 -115.463)" class="lotto-logo-part lotto-logo-fill-blue"></path>
  <path data-id="Path_8" data-name="Path 8" d="M445.862,30.686l2.568,12.754,12.749,2.569-12.749,2.569L445.862,61.33l-2.568-12.753-12.749-2.569,12.749-2.569Z" transform="translate(-323.333 -23.045)" class="lotto-logo-part lotto-logo-fill-yellow" fill-rule="evenodd"></path>
  <path data-id="Path_9" data-name="Path 9" d="M346.78,93.341l1.284,6.377L354.438,101l-6.374,1.284-1.284,6.377-1.284-6.377L339.122,101l6.374-1.284Z" transform="translate(-254.676 -70.097)" class="lotto-logo-part lotto-logo-fill-cerulean" fill-rule="evenodd"></path>
  <path data-id="Path_10" data-name="Path 10" d="M530.464,0l1.284,6.377,6.374,1.284-6.374,1.284-1.284,6.377L529.18,8.945l-6.374-1.284,6.374-1.284Z" transform="translate(-392.62 0)" class="lotto-logo-part lotto-logo-fill-sushi" fill-rule="evenodd"></path>
  <path data-id="Path_11" data-name="Path 11" d="M272.89,15.382l1.926,9.565,9.561,1.926L274.816,28.8l-1.926,9.565L270.964,28.8,261.4,26.874l9.561-1.926Z" transform="translate(-196.31 -11.552)" class="lotto-logo-part lotto-logo-fill-red-ribbon" fill-rule="evenodd"></path>
</g>
</svg>